<svg width="135" height="40" viewBox="0 0 135 40" fill="none" xmlns="http://www.w3.org/2000/svg"><path fill-rule="evenodd" clip-rule="evenodd" d="M0 0H77.9464V40H10.1669C4.55224 40 0 35.5225 0 30V0Z" fill="#DB5C4C"></path><path d="M19.9692 26.1013C19.7151 26.2733 19.461 26.5322 19.2069 26.7052C18.9528 26.8781 18.6148 27.137 18.276 27.3099C17.9372 27.4828 17.5992 27.6557 17.1757 27.7418C16.7522 27.8278 16.3287 27.9147 15.8213 27.9147C15.1437 27.9147 14.5517 27.8287 13.9596 27.5689C13.3667 27.3968 12.9432 27.051 12.5197 26.7052C12.097 26.2733 11.7582 25.8415 11.5888 25.3227C11.3347 24.8049 11.25 24.1141 11.25 23.5093C11.25 22.7316 11.4194 22.1269 11.6735 21.5221C11.9276 20.9174 12.3511 20.3995 12.7746 19.9676C13.2828 19.5358 13.7902 19.276 14.467 19.0171C15.1446 18.7581 15.9069 18.6712 16.6684 18.6712C17.2613 18.6712 17.7686 18.6712 18.276 18.7573C18.7842 18.8441 19.2077 18.931 19.6312 19.0171V18.4123C19.6312 18.0665 19.5465 17.8075 19.4618 17.4626C19.3771 17.2028 19.2077 16.8578 18.9536 16.6849C18.6995 16.4251 18.3607 16.2531 18.0219 16.0801C17.5992 15.9072 17.1757 15.9072 16.5837 15.9072C15.906 15.9072 15.2284 15.9933 14.5517 16.1662C13.8741 16.3391 13.1126 16.598 12.3511 16.857V14.1798C13.0287 13.834 13.7902 13.6611 14.5517 13.4882C15.314 13.3161 16.1601 13.2293 17.0063 13.2293C18.0227 13.2293 18.8689 13.3153 19.6304 13.5751C20.3927 13.8332 20.9856 14.1798 21.4938 14.6117C22.0012 15.0435 22.3391 15.5614 22.5932 16.1662C22.8473 16.7709 22.932 17.3757 22.932 18.1534V25.8415C22.932 26.5322 22.932 27.137 23.0167 27.6557H19.9692V26.1013ZM19.7151 21.695C19.3763 21.609 19.0375 21.523 18.6148 21.523C18.1913 21.4361 17.7678 21.4361 17.3451 21.4361C16.4981 21.4361 15.906 21.6081 15.3987 21.954C14.8905 22.2998 14.7211 22.8177 14.7211 23.5093C14.7211 23.8543 14.8058 24.1141 14.8905 24.373C14.9752 24.6319 15.1446 24.8049 15.314 24.9778C15.4834 25.1498 15.7375 25.2367 15.9916 25.3227C16.2448 25.4088 16.4989 25.4088 16.7531 25.4088C17.0919 25.4088 17.4307 25.3227 17.6839 25.2367C18.0227 25.1507 18.2768 25.0646 18.5309 24.8909C18.785 24.7188 19.0383 24.6328 19.2077 24.459L19.7159 23.9412L19.7151 21.695ZM32.8362 28.0016C31.4809 28.0016 30.2968 27.7418 29.4498 27.3099C28.5889 26.9152 27.8765 26.2487 27.4187 25.4096C27.1646 24.9778 26.9952 24.5459 26.9105 23.9412C26.8258 23.4224 26.7411 22.8177 26.7411 22.2138V13.6611H30.1274V21.8679C30.1274 22.2998 30.1274 22.7316 30.2121 23.0775C30.2968 23.4224 30.3815 23.6822 30.5509 23.9412C30.805 24.373 31.0591 24.7188 31.4818 24.8917C31.9053 25.0638 32.4135 25.2367 33.0056 25.2367C33.5985 25.2367 34.1058 25.1507 34.5294 24.8917C34.9529 24.6319 35.2908 24.287 35.4602 23.8551C35.7143 23.4224 35.799 22.7316 35.799 21.954V13.6611H39.1845V22.2138C39.1845 23.3364 39.0151 24.287 38.5916 25.0638C38.3375 25.4956 38.0834 25.9275 37.7455 26.2733C37.4067 26.6191 36.9832 26.9641 36.5605 27.2239C36.0523 27.4828 35.5441 27.6557 34.952 27.8286C34.2744 27.9147 33.5976 28.0016 32.8362 28.0016ZM50.9513 27.5689C50.6125 27.6549 50.1043 27.7418 49.5961 27.8286C49.0887 27.9147 48.5805 27.9147 48.1578 27.9147C46.972 27.9147 46.0411 27.7426 45.3644 27.3099C45.0147 27.1545 44.6996 26.929 44.4378 26.647C44.1759 26.3649 43.9728 26.0322 43.8406 25.6685C43.5865 25.1507 43.5018 24.459 43.5018 23.5953V16.3391H40.9624V13.4882H43.5018V9.60156H46.8881V13.4899H50.8666V16.3399H46.8881V23.1643C46.8881 23.6831 46.9728 24.1149 47.1422 24.3739C47.3964 24.8057 47.9884 25.0647 48.8346 25.0647C49.2581 25.0647 49.5969 25.0647 50.0204 24.9786C50.4439 24.8926 50.7819 24.8057 51.1207 24.7197V27.5697L50.9513 27.5689ZM63.2254 20.6584C63.2254 19.8808 63.1407 19.276 62.9713 18.6712C62.8019 18.0665 62.5477 17.6346 62.2936 17.2028C61.9548 16.7709 61.616 16.512 61.1934 16.3391C60.7699 16.167 60.3464 16.0801 59.839 16.0801C59.3308 16.0801 58.9073 16.1662 58.4846 16.3391C58.0611 16.512 57.7223 16.8578 57.3843 17.2028C57.0455 17.5486 56.8761 18.0673 56.7067 18.6712C56.4526 19.276 56.3679 19.8808 56.3679 20.6584C56.3679 21.4361 56.4526 22.0409 56.622 22.6456C56.7914 23.2504 57.0455 23.6822 57.2996 24.0272C57.6384 24.373 57.9773 24.7188 58.4008 24.8917C58.8234 25.0638 59.2469 25.1498 59.7543 25.1498C60.2625 25.1498 60.686 25.0638 61.1095 24.8917C61.5322 24.7188 61.871 24.373 62.2098 24.0272C62.5486 23.6822 62.718 23.1635 62.8866 22.6456C63.1407 22.0409 63.2254 21.3492 63.2254 20.6584ZM66.6956 20.6584C66.6956 21.7819 66.5262 22.7316 66.1874 23.6822C65.8486 24.5459 65.4259 25.3236 64.8338 26.0144C64.2043 26.6487 63.4557 27.1481 62.6324 27.4828C61.7854 27.8287 60.8546 28.0016 59.7543 28.0016C58.654 28.0016 57.7232 27.8287 56.8761 27.4828C56.0532 27.148 55.3049 26.6486 54.6756 26.0144C54.0827 25.4096 53.6592 24.6319 53.3212 23.6822C52.9824 22.8177 52.813 21.7811 52.813 20.6584C52.813 19.5358 52.9824 18.5852 53.3212 17.6346C53.66 16.7709 54.0835 15.9941 54.6764 15.3033C55.3054 14.6689 56.0534 14.1692 56.8761 13.834C57.7232 13.4882 58.6549 13.3161 59.7543 13.3161C60.8554 13.3161 61.7863 13.4882 62.6324 13.834C63.4557 14.1688 64.2043 14.6681 64.8338 15.3025C65.4268 15.9072 65.8494 16.6849 66.1882 17.6346C66.527 18.4992 66.6956 19.5358 66.6956 20.6584Z" fill="white"></path><path d="M134.999 0H79.5527V40H134.999V0Z" fill="#003B56"></path><path fill-rule="evenodd" clip-rule="evenodd" d="M90.9832 25.0637C91.051 25.406 91.3875 27.462 91.6571 27.5301C91.9267 27.5983 92.5328 27.3249 92.8024 27.2559C93.4764 27.0506 94.0825 26.7764 94.0825 26.0227C94.0825 25.2689 93.9477 24.447 93.7451 23.7614C93.6112 23.213 93.4085 22.3902 92.9372 21.9797C92.4659 21.5684 91.3206 21.8426 90.8492 22.185C90.1074 22.8016 90.8492 24.3781 90.9832 25.0637ZM91.7919 28.1468C92.0615 29.2437 92.398 30.3398 92.6676 31.4368C92.8694 32.1216 93.072 33.4928 93.8799 33.6299C94.0825 33.6299 94.6217 33.4238 94.8234 33.6299C95.093 33.9723 94.3521 34.1094 94.2173 34.1775C93.1598 34.4435 92.1043 34.7177 91.051 35.0002C90.7144 35.0684 86.8742 36.3706 86.7394 35.8911C86.6724 35.6169 87.0768 35.5487 87.2116 35.4797C87.6151 35.2745 87.7499 35.0002 87.7499 34.5199C87.7499 33.4928 87.3455 32.5329 87.1437 31.5731C86.6763 29.544 86.1371 27.5327 85.5271 25.5432C85.3923 25.0637 85.2575 24.2409 84.7184 24.0357C84.4496 23.8986 84.0452 24.1719 83.7757 24.1038C83.2365 23.8296 83.9096 23.5553 84.18 23.4872C86.3358 22.8706 88.4908 22.3221 90.6466 21.7736C92.6006 21.226 94.6217 20.6094 96.7097 20.6094C98.5959 20.6094 99.6734 22.7335 99.135 24.5152C98.7976 25.4742 97.9219 25.9545 97.114 26.434C96.0357 27.0506 94.8234 27.3249 93.6112 27.6673C94.6217 28.0096 95.5644 28.1468 96.5749 27.8044C96.9792 27.6681 97.3836 27.462 97.7871 27.2559C97.9897 27.1196 98.3933 26.8454 98.6629 26.9135C98.9324 26.9816 99.0003 27.393 99.0672 27.5991C99.202 28.0096 99.4716 28.421 99.7412 28.8324C100.347 29.6551 101.088 30.477 101.964 31.0254C102.301 31.2307 102.638 31.3678 103.041 31.3678C103.244 31.3678 103.581 31.2997 103.514 31.6421C103.446 31.9163 102.773 31.9844 102.57 32.0534C102.031 32.1897 101.493 32.3277 100.953 32.4648C99.9429 32.739 98.8655 33.0124 97.8549 33.2867C97.5854 33.3548 97.114 33.6299 96.8444 33.4238C96.5749 33.2875 96.3731 32.67 96.1705 32.3958L94.1495 29.5171C93.8799 29.1747 93.4764 28.2839 93.072 28.0096C92.7354 27.7362 92.1285 28.0786 91.7919 28.1468ZM105.197 25.8174C105.4 26.7083 105.602 27.5991 105.736 28.49C105.871 29.1066 106.208 30.0656 105.602 30.477C105.467 30.5451 104.322 30.8883 104.726 31.2307C104.861 31.3678 105.602 31.0944 105.803 31.0254C106.276 30.8883 106.814 30.7512 107.286 30.6141C109.104 30.1346 110.924 29.7232 112.675 29.1747C113.348 28.9695 113.281 28.6271 112.607 28.6952C111.866 28.7634 111.665 28.8324 111.26 28.0786C110.924 27.462 110.789 26.7074 110.586 26.0227C110.385 25.1318 110.115 24.1728 109.913 23.2819C109.711 22.3902 109.441 21.4312 109.239 20.5404C109.104 19.7866 108.633 18.6905 108.835 17.8678C108.97 17.1822 109.913 17.3883 110.048 16.8398C110.25 16.1542 108.431 16.8398 108.162 16.9079C106.41 17.3883 104.659 17.8678 102.907 18.2792C102.57 18.3473 102.099 18.4154 101.762 18.6215C101.493 18.8268 101.56 19.0329 101.897 19.101C102.301 19.1692 102.638 18.8958 103.041 19.1692C103.311 19.3753 103.446 19.7185 103.514 20.0609C104.255 21.9797 104.726 23.8986 105.197 25.8174ZM120.152 21.7055C119.277 20.4722 118.401 19.2382 117.593 18.0049C117.727 18.1412 117.593 18.4844 117.593 18.6215C117.525 19.0329 117.525 19.5124 117.525 19.9238C117.458 20.8146 117.458 21.6365 117.39 22.5282C118.266 22.254 119.21 21.9797 120.152 21.7055ZM117.256 23.0077C117.256 23.4872 117.256 24.0357 117.323 24.5152C117.39 25.1318 117.727 25.4742 118.131 25.8864C118.469 26.2279 118.805 26.5711 119.344 26.7083C119.681 26.7764 120.691 26.8445 120.017 27.2559C119.613 27.5301 118.872 27.5991 118.401 27.6673C117.727 27.8734 117.054 28.0096 116.38 28.2157C115.774 28.352 115.1 28.5581 114.494 28.6952C114.157 28.7634 113.483 28.9005 113.955 28.421C114.224 28.1468 114.561 27.9415 114.831 27.6673C115.168 27.2559 115.369 26.8454 115.572 26.365C115.975 25.3371 116.245 24.3091 116.448 23.2138C116.649 21.9107 116.717 20.6085 116.851 19.3071C116.919 18.4163 117.39 17.0451 116.245 16.7717C115.975 16.7035 115.437 16.7717 115.235 16.5656C114.898 16.1542 115.975 15.949 116.245 15.88C117.39 15.4695 118.401 14.6467 119.21 13.8249C119.411 13.6187 119.95 12.7969 120.287 12.7969C120.624 12.7969 121.163 13.8249 121.365 14.0991C122.173 15.2633 122.982 16.3603 123.79 17.4564C124.599 18.5534 125.34 19.6495 126.147 20.6775C126.821 21.6365 127.495 22.7335 128.303 23.5562C128.708 23.8986 128.977 24.1038 129.516 24.1038C129.785 24.1038 130.527 24.1719 129.988 24.5152C129.516 24.7894 128.842 24.8576 128.303 24.9947C127.63 25.2008 126.956 25.3371 126.35 25.5432C124.935 25.9545 123.453 26.2969 122.038 26.7083C121.904 26.7764 121.499 26.9135 121.365 26.8445C121.163 26.7083 121.298 26.5022 121.432 26.365C121.837 26.0227 122.443 26.0227 122.51 25.337C122.578 24.7204 122.106 24.0357 121.769 23.5553C121.499 23.1448 121.163 22.5273 120.758 22.185C120.422 21.9797 119.883 22.2531 119.546 22.3221C118.803 22.6175 118.037 22.8468 117.256 23.0077Z" fill="white"></path><path d="M111.609 6.69689L107.927 8.19404C106.797 8.65431 105.729 9.2444 104.744 9.95159C102.698 11.4409 100.282 12.3829 97.7395 12.683L96.592 12.8038L95.3711 8.20955L96.5144 8.09363C99.0432 7.79586 101.446 6.85728 103.48 5.37281C104.459 4.66907 105.522 4.08122 106.646 3.62179L110.308 2.13281L111.609 6.69689Z" fill="#0057B8"></path><path d="M112.903 11.2343L109.204 12.7388C108.068 13.2014 106.994 13.794 106.003 14.5037C103.943 15.996 101.516 16.9425 98.9614 17.2498L97.8088 17.3723L96.5879 12.7788L97.7354 12.658C100.278 12.358 102.693 11.4159 104.74 9.92657C105.725 9.21919 106.795 8.62884 107.925 8.1682L111.605 6.67188L112.903 11.2343Z" fill="#FFD700"></path></svg>