<svg xmlns="http://www.w3.org/2000/svg" width="24" height="24" viewBox="0 0 24 24" fill="none" class="common-icon"><path fill-rule="evenodd" clip-rule="evenodd" d="M12.0001 3.87654C9.48365 1.37442 5.40384 1.37449 2.88747 3.87675C0.371098 6.379 0.370749 10.4362 2.88699 12.9385L11.295 21.2989C11.6851 21.6867 12.3151 21.6867 12.7052 21.2989L21.1129 12.9383C23.6291 10.4359 23.629 6.37905 21.1127 3.87682C18.5963 1.37458 14.5166 1.37449 12.0001 3.87654ZM19.7026 11.5202C19.7027 11.5201 19.7027 11.5201 19.7027 11.5201C21.4325 9.79968 21.4324 7.01529 19.7024 5.295C17.9662 3.56849 15.1466 3.56843 13.4103 5.29481L12.0001 6.6969L10.5899 5.29479C8.85362 3.56836 6.03397 3.5684 4.2977 5.29493C2.56759 7.01534 2.56745 9.80004 4.29717 11.5203C4.29721 11.5204 4.29724 11.5204 4.29728 11.5204L12.0001 19.1795L19.7026 11.5202Z" fill="#1f2430"></path></svg>