<svg xmlns="http://www.w3.org/2000/svg" width="24" height="24" viewBox="0 0 24 24" fill="none" class="common-icon"><path fill-rule="evenodd" clip-rule="evenodd" d="M12 12C14.2091 12 16 10.2091 16 8C16 5.79086 14.2091 4 12 4C9.79086 4 8 5.79086 8 8C8 10.2091 9.79086 12 12 12ZM12 14C7.58172 14 4 16.6863 4 20C4 20.5523 4.44772 21 5 21C5.55228 21 6 20.5523 6 20C6 17.7909 8.68629 16 12 16C15.3137 16 18 17.7909 18 20C18 20.5523 18.4477 21 19 21C19.5523 21 20 20.5523 20 20C20 16.6863 16.4183 14 12 14Z" fill="#1f2430"/></svg>